<mxfile host="app.diagrams.net" modified="2023-11-26T18:28:03.372Z" agent="Mozilla/5.0 (Windows NT 10.0; Win64; x64) AppleWebKit/537.36 (KHTML, like Gecko) Chrome/119.0.0.0 Safari/537.36" etag="Q3T7Xvq8TTDThDyKY2Nw" version="22.1.4" type="device">
  <diagram name="Page-1" id="Bh6OA0xNfVZtEJfHLBHy">
    <mxGraphModel dx="1038" dy="5375" grid="1" gridSize="10" guides="1" tooltips="1" connect="1" arrows="1" fold="1" page="1" pageScale="1" pageWidth="3300" pageHeight="4681" math="0" shadow="0">
      <root>
        <mxCell id="0" />
        <mxCell id="1" parent="0" />
        <mxCell id="0aqBFH9IO-N5gLg-DHF9-1" value="Conta de Utilizador" style="rounded=0;whiteSpace=wrap;html=1;" vertex="1" parent="1">
          <mxGeometry x="680" y="760" width="120" height="80" as="geometry" />
        </mxCell>
        <mxCell id="0aqBFH9IO-N5gLg-DHF9-2" value="Anuncio" style="rounded=0;whiteSpace=wrap;html=1;" vertex="1" parent="1">
          <mxGeometry x="1120" y="760" width="120" height="80" as="geometry" />
        </mxCell>
        <mxCell id="0aqBFH9IO-N5gLg-DHF9-3" value="id_user" style="ellipse;whiteSpace=wrap;html=1;" vertex="1" parent="1">
          <mxGeometry x="560" y="760" width="80" height="80" as="geometry" />
        </mxCell>
        <mxCell id="0aqBFH9IO-N5gLg-DHF9-6" value="" style="endArrow=none;html=1;rounded=0;entryX=1;entryY=0.5;entryDx=0;entryDy=0;exitX=0;exitY=0.5;exitDx=0;exitDy=0;" edge="1" parent="1" source="0aqBFH9IO-N5gLg-DHF9-1" target="0aqBFH9IO-N5gLg-DHF9-3">
          <mxGeometry width="50" height="50" relative="1" as="geometry">
            <mxPoint x="430" y="1020" as="sourcePoint" />
            <mxPoint x="480" y="970" as="targetPoint" />
          </mxGeometry>
        </mxCell>
        <mxCell id="0aqBFH9IO-N5gLg-DHF9-8" value="Meio de Contacto" style="rounded=0;whiteSpace=wrap;html=1;" vertex="1" parent="1">
          <mxGeometry x="680" y="1080" width="120" height="80" as="geometry" />
        </mxCell>
        <mxCell id="0aqBFH9IO-N5gLg-DHF9-10" value="País" style="rounded=0;whiteSpace=wrap;html=1;" vertex="1" parent="1">
          <mxGeometry x="1560" y="760" width="120" height="80" as="geometry" />
        </mxCell>
        <mxCell id="0aqBFH9IO-N5gLg-DHF9-11" value="Região" style="rounded=0;whiteSpace=wrap;html=1;" vertex="1" parent="1">
          <mxGeometry x="1560" y="880" width="120" height="80" as="geometry" />
        </mxCell>
        <mxCell id="0aqBFH9IO-N5gLg-DHF9-12" value="Localidade" style="rounded=0;whiteSpace=wrap;html=1;" vertex="1" parent="1">
          <mxGeometry x="1560" y="1000" width="120" height="80" as="geometry" />
        </mxCell>
        <mxCell id="0aqBFH9IO-N5gLg-DHF9-14" value="Faz" style="rhombus;whiteSpace=wrap;html=1;" vertex="1" parent="1">
          <mxGeometry x="970" y="760" width="80" height="80" as="geometry" />
        </mxCell>
        <mxCell id="0aqBFH9IO-N5gLg-DHF9-15" value="Pertence" style="rhombus;whiteSpace=wrap;html=1;" vertex="1" parent="1">
          <mxGeometry x="1360" y="760" width="80" height="80" as="geometry" />
        </mxCell>
        <mxCell id="0aqBFH9IO-N5gLg-DHF9-16" value="" style="endArrow=none;html=1;rounded=0;entryX=0;entryY=0.5;entryDx=0;entryDy=0;exitX=1;exitY=0.5;exitDx=0;exitDy=0;" edge="1" parent="1" source="0aqBFH9IO-N5gLg-DHF9-2" target="0aqBFH9IO-N5gLg-DHF9-15">
          <mxGeometry width="50" height="50" relative="1" as="geometry">
            <mxPoint x="1290" y="860" as="sourcePoint" />
            <mxPoint x="1340" y="810" as="targetPoint" />
          </mxGeometry>
        </mxCell>
        <mxCell id="0aqBFH9IO-N5gLg-DHF9-17" value="Pertence" style="rhombus;whiteSpace=wrap;html=1;" vertex="1" parent="1">
          <mxGeometry x="1360" y="880" width="80" height="80" as="geometry" />
        </mxCell>
        <mxCell id="0aqBFH9IO-N5gLg-DHF9-18" value="Pertence" style="rhombus;whiteSpace=wrap;html=1;" vertex="1" parent="1">
          <mxGeometry x="1360" y="1000" width="80" height="80" as="geometry" />
        </mxCell>
        <mxCell id="0aqBFH9IO-N5gLg-DHF9-19" value="" style="endArrow=none;html=1;rounded=0;entryX=0;entryY=0.5;entryDx=0;entryDy=0;exitX=1;exitY=0.5;exitDx=0;exitDy=0;" edge="1" parent="1" source="0aqBFH9IO-N5gLg-DHF9-2" target="0aqBFH9IO-N5gLg-DHF9-17">
          <mxGeometry width="50" height="50" relative="1" as="geometry">
            <mxPoint x="1240" y="880" as="sourcePoint" />
            <mxPoint x="1360" y="880" as="targetPoint" />
          </mxGeometry>
        </mxCell>
        <mxCell id="0aqBFH9IO-N5gLg-DHF9-20" value="" style="endArrow=none;html=1;rounded=0;entryX=0;entryY=0.5;entryDx=0;entryDy=0;exitX=1;exitY=0.5;exitDx=0;exitDy=0;" edge="1" parent="1" source="0aqBFH9IO-N5gLg-DHF9-2" target="0aqBFH9IO-N5gLg-DHF9-18">
          <mxGeometry width="50" height="50" relative="1" as="geometry">
            <mxPoint x="1260" y="820" as="sourcePoint" />
            <mxPoint x="1380" y="820" as="targetPoint" />
          </mxGeometry>
        </mxCell>
        <mxCell id="0aqBFH9IO-N5gLg-DHF9-21" value="" style="endArrow=none;html=1;rounded=0;exitX=1;exitY=0.5;exitDx=0;exitDy=0;entryX=0;entryY=0.5;entryDx=0;entryDy=0;" edge="1" parent="1" source="0aqBFH9IO-N5gLg-DHF9-15" target="0aqBFH9IO-N5gLg-DHF9-10">
          <mxGeometry width="50" height="50" relative="1" as="geometry">
            <mxPoint x="1450" y="799.5" as="sourcePoint" />
            <mxPoint x="1530" y="780" as="targetPoint" />
          </mxGeometry>
        </mxCell>
        <mxCell id="0aqBFH9IO-N5gLg-DHF9-22" value="" style="endArrow=none;html=1;rounded=0;exitX=1;exitY=0.5;exitDx=0;exitDy=0;entryX=0;entryY=0.5;entryDx=0;entryDy=0;" edge="1" parent="1" source="0aqBFH9IO-N5gLg-DHF9-17" target="0aqBFH9IO-N5gLg-DHF9-11">
          <mxGeometry width="50" height="50" relative="1" as="geometry">
            <mxPoint x="1450" y="810" as="sourcePoint" />
            <mxPoint x="1570" y="810" as="targetPoint" />
          </mxGeometry>
        </mxCell>
        <mxCell id="0aqBFH9IO-N5gLg-DHF9-23" value="" style="endArrow=none;html=1;rounded=0;exitX=1;exitY=0.5;exitDx=0;exitDy=0;entryX=0;entryY=0.5;entryDx=0;entryDy=0;" edge="1" parent="1" source="0aqBFH9IO-N5gLg-DHF9-18" target="0aqBFH9IO-N5gLg-DHF9-12">
          <mxGeometry width="50" height="50" relative="1" as="geometry">
            <mxPoint x="1450" y="999" as="sourcePoint" />
            <mxPoint x="1570" y="999" as="targetPoint" />
          </mxGeometry>
        </mxCell>
        <mxCell id="0aqBFH9IO-N5gLg-DHF9-24" value="n" style="text;html=1;strokeColor=none;fillColor=none;align=center;verticalAlign=middle;whiteSpace=wrap;rounded=0;" vertex="1" parent="1">
          <mxGeometry x="1260" y="770" width="60" height="30" as="geometry" />
        </mxCell>
        <mxCell id="0aqBFH9IO-N5gLg-DHF9-25" value="1" style="text;html=1;strokeColor=none;fillColor=none;align=center;verticalAlign=middle;whiteSpace=wrap;rounded=0;" vertex="1" parent="1">
          <mxGeometry x="1520" y="770" width="60" height="30" as="geometry" />
        </mxCell>
        <mxCell id="0aqBFH9IO-N5gLg-DHF9-26" value="n" style="text;html=1;strokeColor=none;fillColor=none;align=center;verticalAlign=middle;whiteSpace=wrap;rounded=0;" vertex="1" parent="1">
          <mxGeometry x="1270" y="820" width="60" height="30" as="geometry" />
        </mxCell>
        <mxCell id="0aqBFH9IO-N5gLg-DHF9-27" value="n" style="text;html=1;strokeColor=none;fillColor=none;align=center;verticalAlign=middle;whiteSpace=wrap;rounded=0;" vertex="1" parent="1">
          <mxGeometry x="1220" y="840" width="60" height="30" as="geometry" />
        </mxCell>
        <mxCell id="0aqBFH9IO-N5gLg-DHF9-28" value="1" style="text;html=1;strokeColor=none;fillColor=none;align=center;verticalAlign=middle;whiteSpace=wrap;rounded=0;" vertex="1" parent="1">
          <mxGeometry x="1520" y="890" width="60" height="30" as="geometry" />
        </mxCell>
        <mxCell id="0aqBFH9IO-N5gLg-DHF9-29" value="1" style="text;html=1;strokeColor=none;fillColor=none;align=center;verticalAlign=middle;whiteSpace=wrap;rounded=0;" vertex="1" parent="1">
          <mxGeometry x="1520" y="1050" width="60" height="30" as="geometry" />
        </mxCell>
        <mxCell id="0aqBFH9IO-N5gLg-DHF9-30" value="" style="endArrow=none;html=1;rounded=0;entryX=0;entryY=0.5;entryDx=0;entryDy=0;exitX=1;exitY=0.5;exitDx=0;exitDy=0;" edge="1" parent="1" source="0aqBFH9IO-N5gLg-DHF9-1" target="0aqBFH9IO-N5gLg-DHF9-14">
          <mxGeometry width="50" height="50" relative="1" as="geometry">
            <mxPoint x="800" y="820" as="sourcePoint" />
            <mxPoint x="920" y="820" as="targetPoint" />
          </mxGeometry>
        </mxCell>
        <mxCell id="0aqBFH9IO-N5gLg-DHF9-31" value="" style="endArrow=none;html=1;rounded=0;entryX=0;entryY=0.5;entryDx=0;entryDy=0;exitX=1;exitY=0.5;exitDx=0;exitDy=0;" edge="1" parent="1" source="0aqBFH9IO-N5gLg-DHF9-14" target="0aqBFH9IO-N5gLg-DHF9-2">
          <mxGeometry width="50" height="50" relative="1" as="geometry">
            <mxPoint x="1000" y="750" as="sourcePoint" />
            <mxPoint x="1120" y="750" as="targetPoint" />
          </mxGeometry>
        </mxCell>
        <mxCell id="0aqBFH9IO-N5gLg-DHF9-32" value="1" style="text;html=1;strokeColor=none;fillColor=none;align=center;verticalAlign=middle;whiteSpace=wrap;rounded=0;" vertex="1" parent="1">
          <mxGeometry x="780" y="760" width="60" height="30" as="geometry" />
        </mxCell>
        <mxCell id="0aqBFH9IO-N5gLg-DHF9-33" value="n" style="text;html=1;strokeColor=none;fillColor=none;align=center;verticalAlign=middle;whiteSpace=wrap;rounded=0;" vertex="1" parent="1">
          <mxGeometry x="1075" y="760" width="60" height="30" as="geometry" />
        </mxCell>
        <mxCell id="0aqBFH9IO-N5gLg-DHF9-36" value="nome" style="ellipse;whiteSpace=wrap;html=1;" vertex="1" parent="1">
          <mxGeometry x="440" y="760" width="80" height="80" as="geometry" />
        </mxCell>
        <mxCell id="0aqBFH9IO-N5gLg-DHF9-37" value="" style="endArrow=none;html=1;rounded=0;entryX=1;entryY=0.5;entryDx=0;entryDy=0;exitX=0;exitY=0.5;exitDx=0;exitDy=0;" edge="1" parent="1" target="0aqBFH9IO-N5gLg-DHF9-36" source="0aqBFH9IO-N5gLg-DHF9-3">
          <mxGeometry width="50" height="50" relative="1" as="geometry">
            <mxPoint x="520" y="800" as="sourcePoint" />
            <mxPoint x="320" y="970" as="targetPoint" />
          </mxGeometry>
        </mxCell>
        <mxCell id="0aqBFH9IO-N5gLg-DHF9-38" value="idade" style="ellipse;whiteSpace=wrap;html=1;" vertex="1" parent="1">
          <mxGeometry x="320" y="760" width="80" height="80" as="geometry" />
        </mxCell>
        <mxCell id="0aqBFH9IO-N5gLg-DHF9-39" value="" style="endArrow=none;html=1;rounded=0;entryX=1;entryY=0.5;entryDx=0;entryDy=0;exitX=0;exitY=0.5;exitDx=0;exitDy=0;" edge="1" parent="1" target="0aqBFH9IO-N5gLg-DHF9-38" source="0aqBFH9IO-N5gLg-DHF9-36">
          <mxGeometry width="50" height="50" relative="1" as="geometry">
            <mxPoint x="360" y="800" as="sourcePoint" />
            <mxPoint x="160" y="970" as="targetPoint" />
          </mxGeometry>
        </mxCell>
        <mxCell id="0aqBFH9IO-N5gLg-DHF9-40" value="" style="rhombus;whiteSpace=wrap;html=1;" vertex="1" parent="1">
          <mxGeometry x="700" y="920" width="80" height="80" as="geometry" />
        </mxCell>
        <mxCell id="0aqBFH9IO-N5gLg-DHF9-41" value="" style="endArrow=none;html=1;rounded=0;entryX=0.5;entryY=0;entryDx=0;entryDy=0;exitX=0.5;exitY=1;exitDx=0;exitDy=0;" edge="1" parent="1" source="0aqBFH9IO-N5gLg-DHF9-1" target="0aqBFH9IO-N5gLg-DHF9-40">
          <mxGeometry width="50" height="50" relative="1" as="geometry">
            <mxPoint x="790" y="880" as="sourcePoint" />
            <mxPoint x="910" y="880" as="targetPoint" />
          </mxGeometry>
        </mxCell>
        <mxCell id="0aqBFH9IO-N5gLg-DHF9-42" value="" style="endArrow=none;html=1;rounded=0;exitX=0.5;exitY=1;exitDx=0;exitDy=0;" edge="1" parent="1" source="0aqBFH9IO-N5gLg-DHF9-40">
          <mxGeometry width="50" height="50" relative="1" as="geometry">
            <mxPoint x="780" y="1025" as="sourcePoint" />
            <mxPoint x="740" y="1080" as="targetPoint" />
          </mxGeometry>
        </mxCell>
        <mxCell id="0aqBFH9IO-N5gLg-DHF9-43" value="1" style="text;html=1;strokeColor=none;fillColor=none;align=center;verticalAlign=middle;whiteSpace=wrap;rounded=0;" vertex="1" parent="1">
          <mxGeometry x="670" y="850" width="60" height="30" as="geometry" />
        </mxCell>
        <mxCell id="0aqBFH9IO-N5gLg-DHF9-44" value="n" style="text;html=1;strokeColor=none;fillColor=none;align=center;verticalAlign=middle;whiteSpace=wrap;rounded=0;" vertex="1" parent="1">
          <mxGeometry x="670" y="1035" width="60" height="30" as="geometry" />
        </mxCell>
        <mxCell id="0aqBFH9IO-N5gLg-DHF9-45" value="" style="endArrow=none;html=1;rounded=0;exitX=0.5;exitY=1;exitDx=0;exitDy=0;entryX=0.5;entryY=0;entryDx=0;entryDy=0;" edge="1" parent="1" source="0aqBFH9IO-N5gLg-DHF9-2" target="0aqBFH9IO-N5gLg-DHF9-46">
          <mxGeometry width="50" height="50" relative="1" as="geometry">
            <mxPoint x="1179.5" y="855" as="sourcePoint" />
            <mxPoint x="1180" y="910" as="targetPoint" />
          </mxGeometry>
        </mxCell>
        <mxCell id="0aqBFH9IO-N5gLg-DHF9-46" value="id_anuncio" style="ellipse;whiteSpace=wrap;html=1;" vertex="1" parent="1">
          <mxGeometry x="1135" y="880" width="90" height="80" as="geometry" />
        </mxCell>
        <mxCell id="0aqBFH9IO-N5gLg-DHF9-47" value="" style="endArrow=none;html=1;rounded=0;exitX=0.5;exitY=1;exitDx=0;exitDy=0;entryX=0.5;entryY=0;entryDx=0;entryDy=0;" edge="1" parent="1" target="0aqBFH9IO-N5gLg-DHF9-52" source="0aqBFH9IO-N5gLg-DHF9-46">
          <mxGeometry width="50" height="50" relative="1" as="geometry">
            <mxPoint x="1180" y="1000" as="sourcePoint" />
            <mxPoint x="1180" y="1120" as="targetPoint" />
          </mxGeometry>
        </mxCell>
        <mxCell id="0aqBFH9IO-N5gLg-DHF9-52" value="data" style="ellipse;whiteSpace=wrap;html=1;" vertex="1" parent="1">
          <mxGeometry x="1135" y="1000" width="90" height="80" as="geometry" />
        </mxCell>
        <mxCell id="0aqBFH9IO-N5gLg-DHF9-53" value="" style="endArrow=none;html=1;rounded=0;exitX=0.5;exitY=1;exitDx=0;exitDy=0;entryX=0.5;entryY=0;entryDx=0;entryDy=0;" edge="1" parent="1" target="0aqBFH9IO-N5gLg-DHF9-54" source="0aqBFH9IO-N5gLg-DHF9-52">
          <mxGeometry width="50" height="50" relative="1" as="geometry">
            <mxPoint x="1180" y="1320" as="sourcePoint" />
            <mxPoint x="1180" y="1430" as="targetPoint" />
          </mxGeometry>
        </mxCell>
        <mxCell id="0aqBFH9IO-N5gLg-DHF9-54" value="hora" style="ellipse;whiteSpace=wrap;html=1;" vertex="1" parent="1">
          <mxGeometry x="1135" y="1120" width="90" height="80" as="geometry" />
        </mxCell>
        <mxCell id="0aqBFH9IO-N5gLg-DHF9-55" value="Artigo" style="rounded=0;whiteSpace=wrap;html=1;" vertex="1" parent="1">
          <mxGeometry x="1560" y="640" width="120" height="80" as="geometry" />
        </mxCell>
        <mxCell id="0aqBFH9IO-N5gLg-DHF9-58" value="nome" style="ellipse;whiteSpace=wrap;html=1;" vertex="1" parent="1">
          <mxGeometry x="1840" y="760" width="80" height="80" as="geometry" />
        </mxCell>
        <mxCell id="0aqBFH9IO-N5gLg-DHF9-60" value="id_pais" style="ellipse;whiteSpace=wrap;html=1;" vertex="1" parent="1">
          <mxGeometry x="1720" y="760" width="80" height="80" as="geometry" />
        </mxCell>
        <mxCell id="0aqBFH9IO-N5gLg-DHF9-61" value="" style="endArrow=none;html=1;rounded=0;entryX=1;entryY=0.5;entryDx=0;entryDy=0;exitX=0;exitY=0.5;exitDx=0;exitDy=0;" edge="1" parent="1" source="0aqBFH9IO-N5gLg-DHF9-58" target="0aqBFH9IO-N5gLg-DHF9-60">
          <mxGeometry width="50" height="50" relative="1" as="geometry">
            <mxPoint x="1760" y="800" as="sourcePoint" />
            <mxPoint x="1560" y="970" as="targetPoint" />
          </mxGeometry>
        </mxCell>
        <mxCell id="0aqBFH9IO-N5gLg-DHF9-62" value="" style="endArrow=none;html=1;rounded=0;exitX=1;exitY=0.5;exitDx=0;exitDy=0;entryX=0;entryY=0.5;entryDx=0;entryDy=0;" edge="1" parent="1" source="0aqBFH9IO-N5gLg-DHF9-10" target="0aqBFH9IO-N5gLg-DHF9-60">
          <mxGeometry width="50" height="50" relative="1" as="geometry">
            <mxPoint x="2080" y="800" as="sourcePoint" />
            <mxPoint x="1840" y="910" as="targetPoint" />
          </mxGeometry>
        </mxCell>
        <mxCell id="0aqBFH9IO-N5gLg-DHF9-63" value="nome" style="ellipse;whiteSpace=wrap;html=1;" vertex="1" parent="1">
          <mxGeometry x="1840" y="880" width="80" height="80" as="geometry" />
        </mxCell>
        <mxCell id="0aqBFH9IO-N5gLg-DHF9-64" value="id_regiao" style="ellipse;whiteSpace=wrap;html=1;" vertex="1" parent="1">
          <mxGeometry x="1720" y="880" width="80" height="80" as="geometry" />
        </mxCell>
        <mxCell id="0aqBFH9IO-N5gLg-DHF9-65" value="" style="endArrow=none;html=1;rounded=0;entryX=1;entryY=0.5;entryDx=0;entryDy=0;exitX=0;exitY=0.5;exitDx=0;exitDy=0;" edge="1" parent="1" source="0aqBFH9IO-N5gLg-DHF9-63" target="0aqBFH9IO-N5gLg-DHF9-64">
          <mxGeometry width="50" height="50" relative="1" as="geometry">
            <mxPoint x="1760" y="920" as="sourcePoint" />
            <mxPoint x="1560" y="1090" as="targetPoint" />
          </mxGeometry>
        </mxCell>
        <mxCell id="0aqBFH9IO-N5gLg-DHF9-66" value="" style="endArrow=none;html=1;rounded=0;exitX=1;exitY=0.5;exitDx=0;exitDy=0;entryX=0;entryY=0.5;entryDx=0;entryDy=0;" edge="1" parent="1" target="0aqBFH9IO-N5gLg-DHF9-64" source="0aqBFH9IO-N5gLg-DHF9-11">
          <mxGeometry width="50" height="50" relative="1" as="geometry">
            <mxPoint x="1680" y="920" as="sourcePoint" />
            <mxPoint x="1840" y="1030" as="targetPoint" />
          </mxGeometry>
        </mxCell>
        <mxCell id="0aqBFH9IO-N5gLg-DHF9-67" value="nome" style="ellipse;whiteSpace=wrap;html=1;" vertex="1" parent="1">
          <mxGeometry x="1840" y="1000" width="80" height="80" as="geometry" />
        </mxCell>
        <mxCell id="0aqBFH9IO-N5gLg-DHF9-68" value="id_localidade" style="ellipse;whiteSpace=wrap;html=1;" vertex="1" parent="1">
          <mxGeometry x="1720" y="1000" width="80" height="80" as="geometry" />
        </mxCell>
        <mxCell id="0aqBFH9IO-N5gLg-DHF9-69" value="" style="endArrow=none;html=1;rounded=0;entryX=1;entryY=0.5;entryDx=0;entryDy=0;exitX=0;exitY=0.5;exitDx=0;exitDy=0;" edge="1" parent="1" source="0aqBFH9IO-N5gLg-DHF9-67" target="0aqBFH9IO-N5gLg-DHF9-68">
          <mxGeometry width="50" height="50" relative="1" as="geometry">
            <mxPoint x="1760" y="1040" as="sourcePoint" />
            <mxPoint x="1560" y="1210" as="targetPoint" />
          </mxGeometry>
        </mxCell>
        <mxCell id="0aqBFH9IO-N5gLg-DHF9-70" value="" style="endArrow=none;html=1;rounded=0;exitX=1;exitY=0.5;exitDx=0;exitDy=0;entryX=0;entryY=0.5;entryDx=0;entryDy=0;" edge="1" parent="1" target="0aqBFH9IO-N5gLg-DHF9-68" source="0aqBFH9IO-N5gLg-DHF9-12">
          <mxGeometry width="50" height="50" relative="1" as="geometry">
            <mxPoint x="1680" y="1040" as="sourcePoint" />
            <mxPoint x="1840" y="1150" as="targetPoint" />
          </mxGeometry>
        </mxCell>
        <mxCell id="0aqBFH9IO-N5gLg-DHF9-71" value="Anuncia" style="rhombus;whiteSpace=wrap;html=1;" vertex="1" parent="1">
          <mxGeometry x="1360" y="640" width="80" height="80" as="geometry" />
        </mxCell>
        <mxCell id="0aqBFH9IO-N5gLg-DHF9-72" value="" style="endArrow=none;html=1;rounded=0;exitX=1;exitY=0.5;exitDx=0;exitDy=0;entryX=0;entryY=0.5;entryDx=0;entryDy=0;" edge="1" parent="1" source="0aqBFH9IO-N5gLg-DHF9-2" target="0aqBFH9IO-N5gLg-DHF9-71">
          <mxGeometry width="50" height="50" relative="1" as="geometry">
            <mxPoint x="1170" y="679" as="sourcePoint" />
            <mxPoint x="1290" y="679" as="targetPoint" />
          </mxGeometry>
        </mxCell>
        <mxCell id="0aqBFH9IO-N5gLg-DHF9-73" value="" style="endArrow=none;html=1;rounded=0;exitX=1;exitY=0.5;exitDx=0;exitDy=0;entryX=0;entryY=0.5;entryDx=0;entryDy=0;" edge="1" parent="1" source="0aqBFH9IO-N5gLg-DHF9-71" target="0aqBFH9IO-N5gLg-DHF9-55">
          <mxGeometry width="50" height="50" relative="1" as="geometry">
            <mxPoint x="1440" y="639.5" as="sourcePoint" />
            <mxPoint x="1560" y="639.5" as="targetPoint" />
          </mxGeometry>
        </mxCell>
        <mxCell id="0aqBFH9IO-N5gLg-DHF9-74" value="n" style="text;html=1;strokeColor=none;fillColor=none;align=center;verticalAlign=middle;whiteSpace=wrap;rounded=0;" vertex="1" parent="1">
          <mxGeometry x="1225" y="740" width="60" height="30" as="geometry" />
        </mxCell>
        <mxCell id="0aqBFH9IO-N5gLg-DHF9-75" value="1" style="text;html=1;strokeColor=none;fillColor=none;align=center;verticalAlign=middle;whiteSpace=wrap;rounded=0;" vertex="1" parent="1">
          <mxGeometry x="1520" y="650" width="60" height="30" as="geometry" />
        </mxCell>
        <mxCell id="0aqBFH9IO-N5gLg-DHF9-77" value="nome" style="ellipse;whiteSpace=wrap;html=1;" vertex="1" parent="1">
          <mxGeometry x="1840" y="640" width="80" height="80" as="geometry" />
        </mxCell>
        <mxCell id="0aqBFH9IO-N5gLg-DHF9-78" value="id_artigo" style="ellipse;whiteSpace=wrap;html=1;" vertex="1" parent="1">
          <mxGeometry x="1720" y="640" width="80" height="80" as="geometry" />
        </mxCell>
        <mxCell id="0aqBFH9IO-N5gLg-DHF9-79" value="" style="endArrow=none;html=1;rounded=0;entryX=1;entryY=0.5;entryDx=0;entryDy=0;exitX=0;exitY=0.5;exitDx=0;exitDy=0;" edge="1" parent="1" source="0aqBFH9IO-N5gLg-DHF9-77" target="0aqBFH9IO-N5gLg-DHF9-78">
          <mxGeometry width="50" height="50" relative="1" as="geometry">
            <mxPoint x="1760" y="680" as="sourcePoint" />
            <mxPoint x="1560" y="850" as="targetPoint" />
          </mxGeometry>
        </mxCell>
        <mxCell id="0aqBFH9IO-N5gLg-DHF9-80" value="" style="endArrow=none;html=1;rounded=0;exitX=1;exitY=0.5;exitDx=0;exitDy=0;entryX=0;entryY=0.5;entryDx=0;entryDy=0;" edge="1" parent="1" target="0aqBFH9IO-N5gLg-DHF9-78" source="0aqBFH9IO-N5gLg-DHF9-55">
          <mxGeometry width="50" height="50" relative="1" as="geometry">
            <mxPoint x="1680" y="680" as="sourcePoint" />
            <mxPoint x="1840" y="790" as="targetPoint" />
          </mxGeometry>
        </mxCell>
        <mxCell id="0aqBFH9IO-N5gLg-DHF9-81" value="" style="endArrow=none;html=1;rounded=0;exitX=0.5;exitY=1;exitDx=0;exitDy=0;entryX=0.5;entryY=0;entryDx=0;entryDy=0;" edge="1" parent="1" target="0aqBFH9IO-N5gLg-DHF9-82" source="0aqBFH9IO-N5gLg-DHF9-54">
          <mxGeometry width="50" height="50" relative="1" as="geometry">
            <mxPoint x="1180" y="1200" as="sourcePoint" />
            <mxPoint x="1180" y="1550" as="targetPoint" />
          </mxGeometry>
        </mxCell>
        <mxCell id="0aqBFH9IO-N5gLg-DHF9-82" value="preçoUnitario" style="ellipse;whiteSpace=wrap;html=1;" vertex="1" parent="1">
          <mxGeometry x="1135" y="1240" width="90" height="80" as="geometry" />
        </mxCell>
        <mxCell id="0aqBFH9IO-N5gLg-DHF9-83" value="Keyword" style="rounded=0;whiteSpace=wrap;html=1;" vertex="1" parent="1">
          <mxGeometry x="1880" y="400" width="120" height="80" as="geometry" />
        </mxCell>
        <mxCell id="0aqBFH9IO-N5gLg-DHF9-84" value="Categoria" style="rounded=0;whiteSpace=wrap;html=1;" vertex="1" parent="1">
          <mxGeometry x="1880" y="520" width="120" height="80" as="geometry" />
        </mxCell>
        <mxCell id="0aqBFH9IO-N5gLg-DHF9-85" value="id_meioCtato" style="ellipse;whiteSpace=wrap;html=1;" vertex="1" parent="1">
          <mxGeometry x="560" y="1080" width="80" height="80" as="geometry" />
        </mxCell>
        <mxCell id="0aqBFH9IO-N5gLg-DHF9-86" value="" style="endArrow=none;html=1;rounded=0;entryX=1;entryY=0.5;entryDx=0;entryDy=0;exitX=0;exitY=0.5;exitDx=0;exitDy=0;" edge="1" parent="1" target="0aqBFH9IO-N5gLg-DHF9-85" source="0aqBFH9IO-N5gLg-DHF9-8">
          <mxGeometry width="50" height="50" relative="1" as="geometry">
            <mxPoint x="680" y="1120" as="sourcePoint" />
            <mxPoint x="480" y="1290" as="targetPoint" />
          </mxGeometry>
        </mxCell>
        <mxCell id="0aqBFH9IO-N5gLg-DHF9-87" value="meioCtato" style="ellipse;whiteSpace=wrap;html=1;" vertex="1" parent="1">
          <mxGeometry x="440" y="1080" width="80" height="80" as="geometry" />
        </mxCell>
        <mxCell id="0aqBFH9IO-N5gLg-DHF9-88" value="" style="endArrow=none;html=1;rounded=0;entryX=1;entryY=0.5;entryDx=0;entryDy=0;exitX=0;exitY=0.5;exitDx=0;exitDy=0;" edge="1" parent="1" source="0aqBFH9IO-N5gLg-DHF9-85" target="0aqBFH9IO-N5gLg-DHF9-87">
          <mxGeometry width="50" height="50" relative="1" as="geometry">
            <mxPoint x="520" y="1120" as="sourcePoint" />
            <mxPoint x="320" y="1290" as="targetPoint" />
          </mxGeometry>
        </mxCell>
        <mxCell id="0aqBFH9IO-N5gLg-DHF9-91" value="Anuncia" style="rhombus;whiteSpace=wrap;html=1;" vertex="1" parent="1">
          <mxGeometry x="1720" y="520" width="80" height="80" as="geometry" />
        </mxCell>
        <mxCell id="0aqBFH9IO-N5gLg-DHF9-92" value="Anuncia" style="rhombus;whiteSpace=wrap;html=1;" vertex="1" parent="1">
          <mxGeometry x="1720" y="400" width="80" height="80" as="geometry" />
        </mxCell>
        <mxCell id="0aqBFH9IO-N5gLg-DHF9-93" value="" style="endArrow=none;html=1;rounded=0;exitX=1;exitY=0.5;exitDx=0;exitDy=0;entryX=0;entryY=0.5;entryDx=0;entryDy=0;" edge="1" parent="1" source="0aqBFH9IO-N5gLg-DHF9-55" target="0aqBFH9IO-N5gLg-DHF9-91">
          <mxGeometry width="50" height="50" relative="1" as="geometry">
            <mxPoint x="1690" y="690" as="sourcePoint" />
            <mxPoint x="1730" y="690" as="targetPoint" />
          </mxGeometry>
        </mxCell>
        <mxCell id="0aqBFH9IO-N5gLg-DHF9-94" value="" style="endArrow=none;html=1;rounded=0;exitX=1;exitY=0.5;exitDx=0;exitDy=0;entryX=0;entryY=0.5;entryDx=0;entryDy=0;" edge="1" parent="1" source="0aqBFH9IO-N5gLg-DHF9-55" target="0aqBFH9IO-N5gLg-DHF9-92">
          <mxGeometry width="50" height="50" relative="1" as="geometry">
            <mxPoint x="1690" y="690" as="sourcePoint" />
            <mxPoint x="1730" y="570" as="targetPoint" />
          </mxGeometry>
        </mxCell>
        <mxCell id="0aqBFH9IO-N5gLg-DHF9-95" value="" style="endArrow=none;html=1;rounded=0;exitX=0;exitY=0.5;exitDx=0;exitDy=0;entryX=1;entryY=0.5;entryDx=0;entryDy=0;" edge="1" parent="1" source="0aqBFH9IO-N5gLg-DHF9-84" target="0aqBFH9IO-N5gLg-DHF9-91">
          <mxGeometry width="50" height="50" relative="1" as="geometry">
            <mxPoint x="1700" y="700" as="sourcePoint" />
            <mxPoint x="1740" y="580" as="targetPoint" />
          </mxGeometry>
        </mxCell>
        <mxCell id="0aqBFH9IO-N5gLg-DHF9-96" value="" style="endArrow=none;html=1;rounded=0;exitX=0;exitY=0.5;exitDx=0;exitDy=0;entryX=1;entryY=0.5;entryDx=0;entryDy=0;" edge="1" parent="1" source="0aqBFH9IO-N5gLg-DHF9-83" target="0aqBFH9IO-N5gLg-DHF9-92">
          <mxGeometry width="50" height="50" relative="1" as="geometry">
            <mxPoint x="1890" y="570" as="sourcePoint" />
            <mxPoint x="1810" y="570" as="targetPoint" />
          </mxGeometry>
        </mxCell>
        <mxCell id="0aqBFH9IO-N5gLg-DHF9-97" value="nome" style="ellipse;whiteSpace=wrap;html=1;" vertex="1" parent="1">
          <mxGeometry x="2160" y="520" width="80" height="80" as="geometry" />
        </mxCell>
        <mxCell id="0aqBFH9IO-N5gLg-DHF9-98" value="id_categoria" style="ellipse;whiteSpace=wrap;html=1;" vertex="1" parent="1">
          <mxGeometry x="2040" y="520" width="80" height="80" as="geometry" />
        </mxCell>
        <mxCell id="0aqBFH9IO-N5gLg-DHF9-99" value="" style="endArrow=none;html=1;rounded=0;entryX=1;entryY=0.5;entryDx=0;entryDy=0;exitX=0;exitY=0.5;exitDx=0;exitDy=0;" edge="1" parent="1" source="0aqBFH9IO-N5gLg-DHF9-97" target="0aqBFH9IO-N5gLg-DHF9-98">
          <mxGeometry width="50" height="50" relative="1" as="geometry">
            <mxPoint x="2080" y="560" as="sourcePoint" />
            <mxPoint x="1880" y="730" as="targetPoint" />
          </mxGeometry>
        </mxCell>
        <mxCell id="0aqBFH9IO-N5gLg-DHF9-100" value="" style="endArrow=none;html=1;rounded=0;exitX=1;exitY=0.5;exitDx=0;exitDy=0;entryX=0;entryY=0.5;entryDx=0;entryDy=0;" edge="1" parent="1" target="0aqBFH9IO-N5gLg-DHF9-98" source="0aqBFH9IO-N5gLg-DHF9-84">
          <mxGeometry width="50" height="50" relative="1" as="geometry">
            <mxPoint x="2000" y="560" as="sourcePoint" />
            <mxPoint x="2160" y="670" as="targetPoint" />
          </mxGeometry>
        </mxCell>
        <mxCell id="0aqBFH9IO-N5gLg-DHF9-101" value="nome" style="ellipse;whiteSpace=wrap;html=1;" vertex="1" parent="1">
          <mxGeometry x="2160" y="400" width="80" height="80" as="geometry" />
        </mxCell>
        <mxCell id="0aqBFH9IO-N5gLg-DHF9-102" value="id_keyword" style="ellipse;whiteSpace=wrap;html=1;" vertex="1" parent="1">
          <mxGeometry x="2040" y="400" width="80" height="80" as="geometry" />
        </mxCell>
        <mxCell id="0aqBFH9IO-N5gLg-DHF9-103" value="" style="endArrow=none;html=1;rounded=0;entryX=1;entryY=0.5;entryDx=0;entryDy=0;exitX=0;exitY=0.5;exitDx=0;exitDy=0;" edge="1" parent="1" source="0aqBFH9IO-N5gLg-DHF9-101" target="0aqBFH9IO-N5gLg-DHF9-102">
          <mxGeometry width="50" height="50" relative="1" as="geometry">
            <mxPoint x="2080" y="440" as="sourcePoint" />
            <mxPoint x="1880" y="610" as="targetPoint" />
          </mxGeometry>
        </mxCell>
        <mxCell id="0aqBFH9IO-N5gLg-DHF9-104" value="" style="endArrow=none;html=1;rounded=0;exitX=1;exitY=0.5;exitDx=0;exitDy=0;entryX=0;entryY=0.5;entryDx=0;entryDy=0;" edge="1" parent="1" target="0aqBFH9IO-N5gLg-DHF9-102" source="0aqBFH9IO-N5gLg-DHF9-83">
          <mxGeometry width="50" height="50" relative="1" as="geometry">
            <mxPoint x="2000" y="440" as="sourcePoint" />
            <mxPoint x="2160" y="550" as="targetPoint" />
          </mxGeometry>
        </mxCell>
        <mxCell id="0aqBFH9IO-N5gLg-DHF9-105" value="n" style="text;html=1;strokeColor=none;fillColor=none;align=center;verticalAlign=middle;whiteSpace=wrap;rounded=0;" vertex="1" parent="1">
          <mxGeometry x="1650" y="600" width="60" height="30" as="geometry" />
        </mxCell>
        <mxCell id="0aqBFH9IO-N5gLg-DHF9-106" value="n" style="text;html=1;strokeColor=none;fillColor=none;align=center;verticalAlign=middle;whiteSpace=wrap;rounded=0;" vertex="1" parent="1">
          <mxGeometry x="1820" y="410" width="60" height="30" as="geometry" />
        </mxCell>
        <mxCell id="0aqBFH9IO-N5gLg-DHF9-107" value="n" style="text;html=1;strokeColor=none;fillColor=none;align=center;verticalAlign=middle;whiteSpace=wrap;rounded=0;" vertex="1" parent="1">
          <mxGeometry x="1820" y="570" width="60" height="30" as="geometry" />
        </mxCell>
        <mxCell id="0aqBFH9IO-N5gLg-DHF9-108" value="n" style="text;html=1;strokeColor=none;fillColor=none;align=center;verticalAlign=middle;whiteSpace=wrap;rounded=0;" vertex="1" parent="1">
          <mxGeometry x="1670" y="640" width="60" height="30" as="geometry" />
        </mxCell>
        <mxCell id="0aqBFH9IO-N5gLg-DHF9-111" value="Permite" style="rhombus;whiteSpace=wrap;html=1;" vertex="1" parent="1">
          <mxGeometry x="920" y="880" width="80" height="80" as="geometry" />
        </mxCell>
        <mxCell id="0aqBFH9IO-N5gLg-DHF9-112" value="Meio de Pagamento" style="rounded=0;whiteSpace=wrap;html=1;" vertex="1" parent="1">
          <mxGeometry x="900" y="1000" width="120" height="80" as="geometry" />
        </mxCell>
        <mxCell id="0aqBFH9IO-N5gLg-DHF9-113" value="" style="endArrow=none;html=1;rounded=0;entryX=0;entryY=0.5;entryDx=0;entryDy=0;exitX=1;exitY=0.5;exitDx=0;exitDy=0;" edge="1" parent="1" source="0aqBFH9IO-N5gLg-DHF9-111" target="0aqBFH9IO-N5gLg-DHF9-2">
          <mxGeometry width="50" height="50" relative="1" as="geometry">
            <mxPoint x="1010" y="810" as="sourcePoint" />
            <mxPoint x="1130" y="810" as="targetPoint" />
          </mxGeometry>
        </mxCell>
        <mxCell id="0aqBFH9IO-N5gLg-DHF9-114" value="" style="endArrow=none;html=1;rounded=0;entryX=0.5;entryY=1;entryDx=0;entryDy=0;exitX=0.5;exitY=0;exitDx=0;exitDy=0;" edge="1" parent="1" source="0aqBFH9IO-N5gLg-DHF9-112" target="0aqBFH9IO-N5gLg-DHF9-111">
          <mxGeometry width="50" height="50" relative="1" as="geometry">
            <mxPoint x="1020" y="820" as="sourcePoint" />
            <mxPoint x="1140" y="820" as="targetPoint" />
          </mxGeometry>
        </mxCell>
        <mxCell id="0aqBFH9IO-N5gLg-DHF9-115" value="n" style="text;html=1;strokeColor=none;fillColor=none;align=center;verticalAlign=middle;whiteSpace=wrap;rounded=0;" vertex="1" parent="1">
          <mxGeometry x="940" y="970" width="60" height="30" as="geometry" />
        </mxCell>
        <mxCell id="0aqBFH9IO-N5gLg-DHF9-116" value="n" style="text;html=1;strokeColor=none;fillColor=none;align=center;verticalAlign=middle;whiteSpace=wrap;rounded=0;" vertex="1" parent="1">
          <mxGeometry x="1075" y="820" width="60" height="30" as="geometry" />
        </mxCell>
        <mxCell id="0aqBFH9IO-N5gLg-DHF9-117" value="" style="endArrow=none;html=1;rounded=0;entryX=0.5;entryY=0;entryDx=0;entryDy=0;exitX=0.5;exitY=1;exitDx=0;exitDy=0;" edge="1" parent="1" target="0aqBFH9IO-N5gLg-DHF9-118" source="0aqBFH9IO-N5gLg-DHF9-112">
          <mxGeometry width="50" height="50" relative="1" as="geometry">
            <mxPoint x="960" y="1080" as="sourcePoint" />
            <mxPoint x="960" y="1240" as="targetPoint" />
          </mxGeometry>
        </mxCell>
        <mxCell id="0aqBFH9IO-N5gLg-DHF9-118" value="id_meioPaga" style="ellipse;whiteSpace=wrap;html=1;" vertex="1" parent="1">
          <mxGeometry x="915" y="1120" width="90" height="80" as="geometry" />
        </mxCell>
        <mxCell id="0aqBFH9IO-N5gLg-DHF9-119" value="" style="endArrow=none;html=1;rounded=0;exitX=0.5;exitY=1;exitDx=0;exitDy=0;entryX=0.5;entryY=0;entryDx=0;entryDy=0;" edge="1" parent="1" source="0aqBFH9IO-N5gLg-DHF9-118" target="0aqBFH9IO-N5gLg-DHF9-120">
          <mxGeometry width="50" height="50" relative="1" as="geometry">
            <mxPoint x="960" y="1440" as="sourcePoint" />
            <mxPoint x="960" y="1550" as="targetPoint" />
          </mxGeometry>
        </mxCell>
        <mxCell id="0aqBFH9IO-N5gLg-DHF9-120" value="meioPagamento" style="ellipse;whiteSpace=wrap;html=1;" vertex="1" parent="1">
          <mxGeometry x="915" y="1240" width="90" height="80" as="geometry" />
        </mxCell>
        <mxCell id="0aqBFH9IO-N5gLg-DHF9-121" value="marca" style="ellipse;whiteSpace=wrap;html=1;" vertex="1" parent="1">
          <mxGeometry x="1960" y="640" width="80" height="80" as="geometry" />
        </mxCell>
        <mxCell id="0aqBFH9IO-N5gLg-DHF9-122" value="" style="endArrow=none;html=1;rounded=0;entryX=1;entryY=0.5;entryDx=0;entryDy=0;exitX=0;exitY=0.5;exitDx=0;exitDy=0;" edge="1" parent="1" source="0aqBFH9IO-N5gLg-DHF9-121" target="0aqBFH9IO-N5gLg-DHF9-77">
          <mxGeometry width="50" height="50" relative="1" as="geometry">
            <mxPoint x="1880" y="680" as="sourcePoint" />
            <mxPoint x="1920" y="680" as="targetPoint" />
          </mxGeometry>
        </mxCell>
        <mxCell id="0aqBFH9IO-N5gLg-DHF9-123" value="modelo" style="ellipse;whiteSpace=wrap;html=1;" vertex="1" parent="1">
          <mxGeometry x="2080" y="640" width="80" height="80" as="geometry" />
        </mxCell>
        <mxCell id="0aqBFH9IO-N5gLg-DHF9-124" value="" style="endArrow=none;html=1;rounded=0;entryX=1;entryY=0.5;entryDx=0;entryDy=0;exitX=0;exitY=0.5;exitDx=0;exitDy=0;" edge="1" parent="1" source="0aqBFH9IO-N5gLg-DHF9-123" target="0aqBFH9IO-N5gLg-DHF9-121">
          <mxGeometry width="50" height="50" relative="1" as="geometry">
            <mxPoint x="2000" y="680" as="sourcePoint" />
            <mxPoint x="2040" y="680" as="targetPoint" />
          </mxGeometry>
        </mxCell>
        <mxCell id="0aqBFH9IO-N5gLg-DHF9-125" value="Tem" style="rhombus;whiteSpace=wrap;html=1;" vertex="1" parent="1">
          <mxGeometry x="1580" y="200" width="80" height="80" as="geometry" />
        </mxCell>
        <mxCell id="0aqBFH9IO-N5gLg-DHF9-126" value="Comentário" style="rounded=0;whiteSpace=wrap;html=1;" vertex="1" parent="1">
          <mxGeometry x="1400" y="200" width="120" height="80" as="geometry" />
        </mxCell>
        <mxCell id="0aqBFH9IO-N5gLg-DHF9-127" value="" style="endArrow=none;html=1;rounded=0;exitX=1;exitY=0.5;exitDx=0;exitDy=0;entryX=0;entryY=0.5;entryDx=0;entryDy=0;" edge="1" parent="1" source="0aqBFH9IO-N5gLg-DHF9-126" target="0aqBFH9IO-N5gLg-DHF9-125">
          <mxGeometry width="50" height="50" relative="1" as="geometry">
            <mxPoint x="1140" y="100" as="sourcePoint" />
            <mxPoint x="1050" y="-30" as="targetPoint" />
          </mxGeometry>
        </mxCell>
        <mxCell id="0aqBFH9IO-N5gLg-DHF9-128" value="" style="endArrow=none;html=1;rounded=0;exitX=0.5;exitY=0;exitDx=0;exitDy=0;entryX=0.5;entryY=1;entryDx=0;entryDy=0;" edge="1" parent="1" source="0aqBFH9IO-N5gLg-DHF9-55" target="0aqBFH9IO-N5gLg-DHF9-125">
          <mxGeometry width="50" height="50" relative="1" as="geometry">
            <mxPoint x="1690" y="690" as="sourcePoint" />
            <mxPoint x="1730" y="450" as="targetPoint" />
          </mxGeometry>
        </mxCell>
        <mxCell id="0aqBFH9IO-N5gLg-DHF9-129" value="n" style="text;html=1;strokeColor=none;fillColor=none;align=center;verticalAlign=middle;whiteSpace=wrap;rounded=0;" vertex="1" parent="1">
          <mxGeometry x="1520" y="250" width="60" height="30" as="geometry" />
        </mxCell>
        <mxCell id="0aqBFH9IO-N5gLg-DHF9-130" value="n" style="text;html=1;strokeColor=none;fillColor=none;align=center;verticalAlign=middle;whiteSpace=wrap;rounded=0;" vertex="1" parent="1">
          <mxGeometry x="1580" y="600" width="60" height="30" as="geometry" />
        </mxCell>
        <mxCell id="0aqBFH9IO-N5gLg-DHF9-132" value="comentario" style="ellipse;whiteSpace=wrap;html=1;" vertex="1" parent="1">
          <mxGeometry x="1420" y="-40" width="80" height="80" as="geometry" />
        </mxCell>
        <mxCell id="0aqBFH9IO-N5gLg-DHF9-133" value="id_comentario" style="ellipse;whiteSpace=wrap;html=1;" vertex="1" parent="1">
          <mxGeometry x="1420" y="80" width="80" height="80" as="geometry" />
        </mxCell>
        <mxCell id="0aqBFH9IO-N5gLg-DHF9-134" value="" style="endArrow=none;html=1;rounded=0;entryX=0.5;entryY=0;entryDx=0;entryDy=0;exitX=0.5;exitY=1;exitDx=0;exitDy=0;" edge="1" parent="1" source="0aqBFH9IO-N5gLg-DHF9-132" target="0aqBFH9IO-N5gLg-DHF9-133">
          <mxGeometry width="50" height="50" relative="1" as="geometry">
            <mxPoint x="1510" y="-20" as="sourcePoint" />
            <mxPoint x="1310" y="150" as="targetPoint" />
          </mxGeometry>
        </mxCell>
        <mxCell id="0aqBFH9IO-N5gLg-DHF9-135" value="" style="endArrow=none;html=1;rounded=0;exitX=0.5;exitY=0;exitDx=0;exitDy=0;entryX=0.5;entryY=1;entryDx=0;entryDy=0;" edge="1" parent="1" target="0aqBFH9IO-N5gLg-DHF9-133" source="0aqBFH9IO-N5gLg-DHF9-126">
          <mxGeometry width="50" height="50" relative="1" as="geometry">
            <mxPoint x="1430" y="-20" as="sourcePoint" />
            <mxPoint x="1590" y="90" as="targetPoint" />
          </mxGeometry>
        </mxCell>
        <mxCell id="0aqBFH9IO-N5gLg-DHF9-136" value="Faz" style="rhombus;whiteSpace=wrap;html=1;" vertex="1" parent="1">
          <mxGeometry x="700" y="200" width="80" height="80" as="geometry" />
        </mxCell>
        <mxCell id="0aqBFH9IO-N5gLg-DHF9-137" value="" style="endArrow=none;html=1;rounded=0;exitX=1;exitY=0.5;exitDx=0;exitDy=0;entryX=0;entryY=0.5;entryDx=0;entryDy=0;" edge="1" parent="1" source="0aqBFH9IO-N5gLg-DHF9-136" target="0aqBFH9IO-N5gLg-DHF9-126">
          <mxGeometry width="50" height="50" relative="1" as="geometry">
            <mxPoint x="1330" y="450" as="sourcePoint" />
            <mxPoint x="1390" y="450" as="targetPoint" />
          </mxGeometry>
        </mxCell>
        <mxCell id="0aqBFH9IO-N5gLg-DHF9-138" value="" style="endArrow=none;html=1;rounded=0;exitX=0.5;exitY=0;exitDx=0;exitDy=0;entryX=0.5;entryY=1;entryDx=0;entryDy=0;" edge="1" parent="1" source="0aqBFH9IO-N5gLg-DHF9-1" target="0aqBFH9IO-N5gLg-DHF9-136">
          <mxGeometry width="50" height="50" relative="1" as="geometry">
            <mxPoint x="1120" y="500" as="sourcePoint" />
            <mxPoint x="1200" y="500" as="targetPoint" />
          </mxGeometry>
        </mxCell>
        <mxCell id="0aqBFH9IO-N5gLg-DHF9-139" value="1" style="text;html=1;strokeColor=none;fillColor=none;align=center;verticalAlign=middle;whiteSpace=wrap;rounded=0;" vertex="1" parent="1">
          <mxGeometry x="700" y="720" width="60" height="30" as="geometry" />
        </mxCell>
        <mxCell id="0aqBFH9IO-N5gLg-DHF9-140" value="n" style="text;html=1;strokeColor=none;fillColor=none;align=center;verticalAlign=middle;whiteSpace=wrap;rounded=0;" vertex="1" parent="1">
          <mxGeometry x="1340" y="200" width="60" height="30" as="geometry" />
        </mxCell>
        <mxCell id="0aqBFH9IO-N5gLg-DHF9-141" style="edgeStyle=orthogonalEdgeStyle;rounded=0;orthogonalLoop=1;jettySize=auto;html=1;exitX=0.5;exitY=1;exitDx=0;exitDy=0;" edge="1" parent="1" source="0aqBFH9IO-N5gLg-DHF9-133" target="0aqBFH9IO-N5gLg-DHF9-133">
          <mxGeometry relative="1" as="geometry" />
        </mxCell>
        <mxCell id="0aqBFH9IO-N5gLg-DHF9-142" value="Factura" style="rounded=0;whiteSpace=wrap;html=1;" vertex="1" parent="1">
          <mxGeometry x="930" y="290" width="120" height="80" as="geometry" />
        </mxCell>
        <mxCell id="0aqBFH9IO-N5gLg-DHF9-143" value="Tem" style="rhombus;whiteSpace=wrap;html=1;" vertex="1" parent="1">
          <mxGeometry x="800" y="290" width="80" height="80" as="geometry" />
        </mxCell>
        <mxCell id="0aqBFH9IO-N5gLg-DHF9-144" value="" style="endArrow=none;html=1;rounded=0;exitX=0.5;exitY=0;exitDx=0;exitDy=0;entryX=0;entryY=0.5;entryDx=0;entryDy=0;" edge="1" parent="1" source="0aqBFH9IO-N5gLg-DHF9-1" target="0aqBFH9IO-N5gLg-DHF9-143">
          <mxGeometry width="50" height="50" relative="1" as="geometry">
            <mxPoint x="750" y="770" as="sourcePoint" />
            <mxPoint x="880" y="450" as="targetPoint" />
          </mxGeometry>
        </mxCell>
        <mxCell id="0aqBFH9IO-N5gLg-DHF9-145" value="" style="endArrow=none;html=1;rounded=0;exitX=0;exitY=0.5;exitDx=0;exitDy=0;entryX=1;entryY=0.5;entryDx=0;entryDy=0;" edge="1" parent="1" source="0aqBFH9IO-N5gLg-DHF9-142" target="0aqBFH9IO-N5gLg-DHF9-143">
          <mxGeometry width="50" height="50" relative="1" as="geometry">
            <mxPoint x="680" y="540" as="sourcePoint" />
            <mxPoint x="810" y="340" as="targetPoint" />
          </mxGeometry>
        </mxCell>
        <mxCell id="0aqBFH9IO-N5gLg-DHF9-146" value="1" style="text;html=1;strokeColor=none;fillColor=none;align=center;verticalAlign=middle;whiteSpace=wrap;rounded=0;" vertex="1" parent="1">
          <mxGeometry x="730" y="710" width="60" height="30" as="geometry" />
        </mxCell>
        <mxCell id="0aqBFH9IO-N5gLg-DHF9-147" value="n" style="text;html=1;strokeColor=none;fillColor=none;align=center;verticalAlign=middle;whiteSpace=wrap;rounded=0;" vertex="1" parent="1">
          <mxGeometry x="890" y="330" width="60" height="30" as="geometry" />
        </mxCell>
        <mxCell id="0aqBFH9IO-N5gLg-DHF9-150" value="id_factura" style="ellipse;whiteSpace=wrap;html=1;" vertex="1" parent="1">
          <mxGeometry x="1080" y="290" width="80" height="80" as="geometry" />
        </mxCell>
        <mxCell id="0aqBFH9IO-N5gLg-DHF9-152" value="" style="endArrow=none;html=1;rounded=0;exitX=1;exitY=0.5;exitDx=0;exitDy=0;entryX=0;entryY=0.5;entryDx=0;entryDy=0;" edge="1" parent="1" target="0aqBFH9IO-N5gLg-DHF9-150" source="0aqBFH9IO-N5gLg-DHF9-142">
          <mxGeometry width="50" height="50" relative="1" as="geometry">
            <mxPoint x="1080" y="330" as="sourcePoint" />
            <mxPoint x="1240" y="440" as="targetPoint" />
          </mxGeometry>
        </mxCell>
        <mxCell id="0aqBFH9IO-N5gLg-DHF9-153" value="id_anuncio" style="ellipse;whiteSpace=wrap;html=1;" vertex="1" parent="1">
          <mxGeometry x="1190" y="290" width="80" height="80" as="geometry" />
        </mxCell>
        <mxCell id="0aqBFH9IO-N5gLg-DHF9-154" value="" style="endArrow=none;html=1;rounded=0;exitX=1;exitY=0.5;exitDx=0;exitDy=0;entryX=0;entryY=0.5;entryDx=0;entryDy=0;" edge="1" parent="1" target="0aqBFH9IO-N5gLg-DHF9-153" source="0aqBFH9IO-N5gLg-DHF9-150">
          <mxGeometry width="50" height="50" relative="1" as="geometry">
            <mxPoint x="1170" y="330" as="sourcePoint" />
            <mxPoint x="1360" y="440" as="targetPoint" />
          </mxGeometry>
        </mxCell>
        <mxCell id="0aqBFH9IO-N5gLg-DHF9-155" value="Tem" style="rhombus;whiteSpace=wrap;html=1;" vertex="1" parent="1">
          <mxGeometry x="950" y="440" width="80" height="80" as="geometry" />
        </mxCell>
        <mxCell id="0aqBFH9IO-N5gLg-DHF9-156" value="" style="endArrow=none;html=1;rounded=0;exitX=0.5;exitY=1;exitDx=0;exitDy=0;entryX=0.5;entryY=0;entryDx=0;entryDy=0;" edge="1" parent="1" source="0aqBFH9IO-N5gLg-DHF9-142" target="0aqBFH9IO-N5gLg-DHF9-155">
          <mxGeometry width="50" height="50" relative="1" as="geometry">
            <mxPoint x="1060" y="330" as="sourcePoint" />
            <mxPoint x="1100" y="330" as="targetPoint" />
          </mxGeometry>
        </mxCell>
        <mxCell id="0aqBFH9IO-N5gLg-DHF9-157" value="n" style="text;html=1;strokeColor=none;fillColor=none;align=center;verticalAlign=middle;whiteSpace=wrap;rounded=0;" vertex="1" parent="1">
          <mxGeometry x="940" y="380" width="60" height="30" as="geometry" />
        </mxCell>
        <mxCell id="0aqBFH9IO-N5gLg-DHF9-158" value="" style="endArrow=none;html=1;rounded=0;exitX=0.5;exitY=1;exitDx=0;exitDy=0;entryX=0;entryY=0;entryDx=0;entryDy=0;" edge="1" parent="1" target="0aqBFH9IO-N5gLg-DHF9-112">
          <mxGeometry width="50" height="50" relative="1" as="geometry">
            <mxPoint x="989.5" y="520" as="sourcePoint" />
            <mxPoint x="989.5" y="600" as="targetPoint" />
          </mxGeometry>
        </mxCell>
        <mxCell id="0aqBFH9IO-N5gLg-DHF9-159" value="1" style="text;html=1;strokeColor=none;fillColor=none;align=center;verticalAlign=middle;whiteSpace=wrap;rounded=0;" vertex="1" parent="1">
          <mxGeometry x="855" y="980" width="60" height="30" as="geometry" />
        </mxCell>
        <mxCell id="0aqBFH9IO-N5gLg-DHF9-160" value="Avaliação" style="rounded=0;whiteSpace=wrap;html=1;" vertex="1" parent="1">
          <mxGeometry x="1240" y="440" width="120" height="80" as="geometry" />
        </mxCell>
        <mxCell id="0aqBFH9IO-N5gLg-DHF9-161" value="Tem" style="rhombus;whiteSpace=wrap;html=1;" vertex="1" parent="1">
          <mxGeometry x="1120" y="440" width="80" height="80" as="geometry" />
        </mxCell>
        <mxCell id="0aqBFH9IO-N5gLg-DHF9-162" value="" style="endArrow=none;html=1;rounded=0;exitX=0.5;exitY=1;exitDx=0;exitDy=0;entryX=0;entryY=0.5;entryDx=0;entryDy=0;" edge="1" parent="1" source="0aqBFH9IO-N5gLg-DHF9-142" target="0aqBFH9IO-N5gLg-DHF9-161">
          <mxGeometry width="50" height="50" relative="1" as="geometry">
            <mxPoint x="1060" y="330" as="sourcePoint" />
            <mxPoint x="1100" y="330" as="targetPoint" />
          </mxGeometry>
        </mxCell>
        <mxCell id="0aqBFH9IO-N5gLg-DHF9-163" value="" style="endArrow=none;html=1;rounded=0;exitX=1;exitY=0.5;exitDx=0;exitDy=0;entryX=0;entryY=0.5;entryDx=0;entryDy=0;" edge="1" parent="1" source="0aqBFH9IO-N5gLg-DHF9-161" target="0aqBFH9IO-N5gLg-DHF9-160">
          <mxGeometry width="50" height="50" relative="1" as="geometry">
            <mxPoint x="1040" y="490" as="sourcePoint" />
            <mxPoint x="1130" y="490" as="targetPoint" />
          </mxGeometry>
        </mxCell>
        <mxCell id="0aqBFH9IO-N5gLg-DHF9-164" value="n" style="text;html=1;strokeColor=none;fillColor=none;align=center;verticalAlign=middle;whiteSpace=wrap;rounded=0;" vertex="1" parent="1">
          <mxGeometry x="1000" y="370" width="60" height="30" as="geometry" />
        </mxCell>
        <mxCell id="0aqBFH9IO-N5gLg-DHF9-165" value="1" style="text;html=1;strokeColor=none;fillColor=none;align=center;verticalAlign=middle;whiteSpace=wrap;rounded=0;" vertex="1" parent="1">
          <mxGeometry x="1200" y="450" width="60" height="30" as="geometry" />
        </mxCell>
        <mxCell id="0aqBFH9IO-N5gLg-DHF9-166" value="id_avaliacao" style="ellipse;whiteSpace=wrap;html=1;" vertex="1" parent="1">
          <mxGeometry x="1390" y="440" width="80" height="80" as="geometry" />
        </mxCell>
        <mxCell id="0aqBFH9IO-N5gLg-DHF9-167" value="" style="endArrow=none;html=1;rounded=0;exitX=1;exitY=0.5;exitDx=0;exitDy=0;entryX=0;entryY=0.5;entryDx=0;entryDy=0;" edge="1" parent="1" target="0aqBFH9IO-N5gLg-DHF9-166" source="0aqBFH9IO-N5gLg-DHF9-160">
          <mxGeometry width="50" height="50" relative="1" as="geometry">
            <mxPoint x="1400" y="480" as="sourcePoint" />
            <mxPoint x="1590" y="590" as="targetPoint" />
          </mxGeometry>
        </mxCell>
        <mxCell id="0aqBFH9IO-N5gLg-DHF9-168" value="avaliacao" style="ellipse;whiteSpace=wrap;html=1;" vertex="1" parent="1">
          <mxGeometry x="1490" y="440" width="80" height="80" as="geometry" />
        </mxCell>
        <mxCell id="0aqBFH9IO-N5gLg-DHF9-169" value="" style="endArrow=none;html=1;rounded=0;exitX=1;exitY=0.5;exitDx=0;exitDy=0;entryX=0;entryY=0.5;entryDx=0;entryDy=0;" edge="1" parent="1" source="0aqBFH9IO-N5gLg-DHF9-166" target="0aqBFH9IO-N5gLg-DHF9-168">
          <mxGeometry width="50" height="50" relative="1" as="geometry">
            <mxPoint x="1490" y="480" as="sourcePoint" />
            <mxPoint x="1680" y="590" as="targetPoint" />
          </mxGeometry>
        </mxCell>
        <mxCell id="0aqBFH9IO-N5gLg-DHF9-173" value="data" style="ellipse;whiteSpace=wrap;html=1;" vertex="1" parent="1">
          <mxGeometry x="1300" y="290" width="80" height="80" as="geometry" />
        </mxCell>
        <mxCell id="0aqBFH9IO-N5gLg-DHF9-174" value="" style="endArrow=none;html=1;rounded=0;exitX=1;exitY=0.5;exitDx=0;exitDy=0;entryX=0;entryY=0.5;entryDx=0;entryDy=0;" edge="1" parent="1" target="0aqBFH9IO-N5gLg-DHF9-173">
          <mxGeometry width="50" height="50" relative="1" as="geometry">
            <mxPoint x="1270" y="330" as="sourcePoint" />
            <mxPoint x="1460" y="440" as="targetPoint" />
          </mxGeometry>
        </mxCell>
        <mxCell id="0aqBFH9IO-N5gLg-DHF9-175" value="hora" style="ellipse;whiteSpace=wrap;html=1;" vertex="1" parent="1">
          <mxGeometry x="1410" y="290" width="80" height="80" as="geometry" />
        </mxCell>
        <mxCell id="0aqBFH9IO-N5gLg-DHF9-176" value="" style="endArrow=none;html=1;rounded=0;exitX=1;exitY=0.5;exitDx=0;exitDy=0;entryX=0;entryY=0.5;entryDx=0;entryDy=0;" edge="1" parent="1" source="0aqBFH9IO-N5gLg-DHF9-173" target="0aqBFH9IO-N5gLg-DHF9-175">
          <mxGeometry width="50" height="50" relative="1" as="geometry">
            <mxPoint x="1390" y="330" as="sourcePoint" />
            <mxPoint x="1580" y="440" as="targetPoint" />
          </mxGeometry>
        </mxCell>
        <mxCell id="0aqBFH9IO-N5gLg-DHF9-177" value="" style="endArrow=none;html=1;rounded=0;exitX=0.5;exitY=1;exitDx=0;exitDy=0;entryX=0.5;entryY=0;entryDx=0;entryDy=0;" edge="1" parent="1" target="0aqBFH9IO-N5gLg-DHF9-178" source="0aqBFH9IO-N5gLg-DHF9-82">
          <mxGeometry width="50" height="50" relative="1" as="geometry">
            <mxPoint x="1180" y="1320" as="sourcePoint" />
            <mxPoint x="1180" y="1670" as="targetPoint" />
          </mxGeometry>
        </mxCell>
        <mxCell id="0aqBFH9IO-N5gLg-DHF9-178" value="quantidade" style="ellipse;whiteSpace=wrap;html=1;" vertex="1" parent="1">
          <mxGeometry x="1135" y="1360" width="90" height="80" as="geometry" />
        </mxCell>
      </root>
    </mxGraphModel>
  </diagram>
</mxfile>
